<?xml version="1.0" encoding="UTF-8" standalone="no"?> <svg id="Layer_1" data-name="Layer 1" xmlns="http://www.w3.org/2000/svg" viewBox="0 0 512 512"><defs><style>.cls-1{fill:#3498db;}.cls-2{fill:#2ecc71;}.cls-3{fill:#083c59;opacity:0.25;}</style></defs><title>Earth</title><circle class="cls-1" cx="256" cy="256" r="234.667"/><path class="cls-2" d="M244.676,120.027v.4a20.453,20.453,0,0,1-11.32,18.3l-54.588,27.3a20.466,20.466,0,0,0-2.2,1.274L148.63,185.935a20.576,20.576,0,0,0-6.962,7.878l-4.157,8.336a20.4,20.4,0,0,0,0,18.3,20.485,20.485,0,0,1-3.844,23.634l-.615.615a20.455,20.455,0,0,1-25,3.073l-35.68-21.4a20.454,20.454,0,0,1-8.884-11.085l-8.783-26.339c-10.5,0-16.807-4.682-20.539-9.655v-.011A235.323,235.323,0,0,1,140.707,51.561l32.63,22.662a20.47,20.47,0,0,1,6.627,7.655l3.185,6.358a20.453,20.453,0,0,0,18.3,11.32H224.2A20.469,20.469,0,0,1,244.676,120.027Z"/><path class="cls-2" d="M278.2,320.41v11.566a13.809,13.809,0,0,1-.7,4.369l-9.443,28.305a13.738,13.738,0,0,1-3.33,5.4l-17.086,17.086a13.749,13.749,0,0,0-3.777,7.062l-9.029,45.145a13.818,13.818,0,0,1-7.375,9.644l-7.4,3.71a13.819,13.819,0,0,1-15.946-2.592L190.389,436.38a14.128,14.128,0,0,1-2.592-3.587l-8.716-17.432a13.947,13.947,0,0,1-1.453-6.18V365.109A13.842,13.842,0,0,0,170,352.75l-11.432-5.71a13.732,13.732,0,0,1-5.319-4.693l-17.991-27a13.736,13.736,0,0,1-2.324-7.655v-9.633a13.842,13.842,0,0,1,7.632-12.359l10.594-5.3a13.673,13.673,0,0,0,6.18-6.18l5.3-10.594A13.842,13.842,0,0,1,174.991,256h19.265a13.8,13.8,0,0,1,9.767,4.045l3.084,3.084a13.8,13.8,0,0,0,9.767,4.045h2.816A13.811,13.811,0,0,1,233.5,280.986a13.842,13.842,0,0,0,7.632,12.359l29.434,14.706A13.842,13.842,0,0,1,278.2,320.41Z"/><path class="cls-2" d="M490.662,256a233.937,233.937,0,0,1-66.936,164.11l-10.281-25.456a22.383,22.383,0,0,1-1.151-7.073V362.963a22.3,22.3,0,0,0-2.358-9.99L392.3,317.706a22.3,22.3,0,0,1-2.358-9.99v-3.263a22.348,22.348,0,0,0-32.339-19.991l-7.644,3.822a22.3,22.3,0,0,1-9.99,2.358h-.961A22.354,22.354,0,0,1,317.8,275.354l-4.928-14.8a22.383,22.383,0,0,1-1.151-7.073V235.551a22.347,22.347,0,0,1,9.956-18.595l20.349-13.566A22.431,22.431,0,0,1,349,200.306l34.63-8.66a22.424,22.424,0,0,1,12.493.48l23.9,7.967a22.386,22.386,0,0,0,7.074,1.151h57.136A235.158,235.158,0,0,1,490.662,256Z"/><path class="cls-2" d="M468.067,155.429H434.689a18.972,18.972,0,0,1-13.41-5.554l-2.3-2.3a18.972,18.972,0,0,0-13.41-5.554H391.085a18.979,18.979,0,0,0-8.493,2l-18.8,9.409a19.013,19.013,0,0,1-8.493,2h-3.375a18.964,18.964,0,0,1-13.41-32.373l19.1-19.1a19.117,19.117,0,0,1,4.917-3.554l20.058-10.024a18.979,18.979,0,0,1,8.493-2h29.132A235.049,235.049,0,0,1,468.067,155.429Z"/><path class="cls-3" d="M300.7,434.793c-123.431,0-223.492-100.061-223.492-223.492A222.883,222.883,0,0,1,149.25,46.965,234.654,234.654,0,0,0,21.333,256C21.333,385.6,126.4,490.667,256,490.667A234.654,234.654,0,0,0,465.035,362.75,222.883,222.883,0,0,1,300.7,434.793Z"/></svg>